<svg xmlns="http://www.w3.org/2000/svg" xmlns:xlink="http://www.w3.org/1999/xlink" id="Camada_1" data-name="Camada 1" viewBox="0 0 338.11 81.58"><defs><style>      .cls-1 {        fill: #000;      }      .cls-1, .cls-2, .cls-3, .cls-4, .cls-5, .cls-6, .cls-7, .cls-8 {        stroke-width: 0px;      }      .cls-2 {        fill: url(#Gradiente_sem_nome_52);      }      .cls-3 {        fill: url(#Gradiente_sem_nome_26);      }      .cls-4 {        fill: #e4002b;      }      .cls-5 {        fill: #009739;      }      .cls-6 {        fill: #c3c4ca;      }      .cls-7 {        fill: url(#Gradiente_sem_nome_142);      }      .cls-8 {        fill: #c5062d;      }    </style><radialGradient id="Gradiente_sem_nome_142" data-name="Gradiente sem nome 142" cx="36.34" cy="41.12" fx="18.76" fy="17.33" r="72.81" gradientTransform="translate(40.32 -13.77) rotate(45)" gradientUnits="userSpaceOnUse"><stop offset="0" stop-color="#f4f5f6"></stop><stop offset=".19" stop-color="#eaeaec"></stop><stop offset=".5" stop-color="#cfcfd2"></stop><stop offset=".91" stop-color="#a5a3a7"></stop><stop offset="1" stop-color="#9b999e"></stop></radialGradient><radialGradient id="Gradiente_sem_nome_52" data-name="Gradiente sem nome 52" cx="36.78" cy="41.79" fx="36.78" fy="41.79" r="61.9" gradientUnits="userSpaceOnUse"><stop offset="0" stop-color="#f7f7f8"></stop><stop offset=".49" stop-color="#d7d9dd"></stop><stop offset="1" stop-color="#c3c4ca"></stop></radialGradient><radialGradient id="Gradiente_sem_nome_26" data-name="Gradiente sem nome 26" cx="28.81" cy="27.91" fx="28.81" fy="27.91" r="34.35" gradientUnits="userSpaceOnUse"><stop offset="0" stop-color="#e55e58"></stop><stop offset=".12" stop-color="#e45754"></stop><stop offset=".29" stop-color="#e4454c"></stop><stop offset=".49" stop-color="#e4263d"></stop><stop offset=".7" stop-color="#e4002b"></stop><stop offset="1" stop-color="#cf0523"></stop></radialGradient></defs><circle class="cls-7" cx="36.78" cy="41.79" r="36.78" transform="translate(-18.77 38.25) rotate(-45)"></circle><circle class="cls-2" cx="36.78" cy="41.79" r="31.27"></circle><path class="cls-6" d="M6.99,43.85c0-17.27,14-31.27,31.27-31.27,10.05,0,18.99,4.75,24.71,12.11-5.58-8.53-15.22-14.18-26.18-14.18-17.27,0-31.27,14-31.27,31.27,0,7.22,2.46,13.87,6.57,19.16-3.22-4.91-5.09-10.79-5.09-17.1Z"></path><g><path class="cls-6" d="M44.08,18.87c.46.56.74,1.28.74,2.06v12.83h2.05v-10.44c0-.83-.31-1.58-.82-2.15h0s-1.96-2.29-1.96-2.29Z"></path><polygon class="cls-6" points="59.93 34.69 59.93 34.69 59.93 34.69 59.93 34.69"></polygon><path class="cls-6" d="M28.75,49.82h-12.83c-.97,0-1.83-.43-2.43-1.1h0s1.95,2.26,1.95,2.26c.03.04.07.08.1.12l.07.08h0c.59.62,1.43,1.01,2.35,1.01h10.78v-2.38Z"></path><path class="cls-6" d="M44.07,18.85l-.03-.03h0s.02.02.03.03Z"></path><path class="cls-6" d="M62.17,37.28h0s-1.95-2.25-1.95-2.25c.42.55.67,1.23.67,1.97v9.58c0,1.79-1.45,3.25-3.24,3.25h-12.83v12.83c0,1.79-1.45,3.24-3.25,3.24h-9.58c-.94,0-1.79-.4-2.38-1.04h0s1.87,2.17,1.87,2.17c.07.08.13.16.21.24l.03.03h0c.59.6,1.41.98,2.32.98h9.58c1.79,0,3.24-1.45,3.24-3.25v-12.83h12.83c1.79,0,3.24-1.45,3.24-3.25v-9.58c0-.8-.29-1.53-.77-2.1Z"></path></g><path class="cls-3" d="M60.89,36.99v9.58c0,1.79-1.46,3.24-3.25,3.24h-12.82v12.82c0,1.79-1.45,3.25-3.24,3.25h-9.58c-.08,0-.16,0-.24-.01-.03,0-.05,0-.08,0-.15-.01-.3-.04-.44-.07-.07-.02-.14-.04-.2-.06-.04-.01-.07-.02-.11-.04-.39-.14-.74-.34-1.05-.61-.06-.05-.12-.11-.18-.16-.35-.36-.63-.8-.79-1.29.32.1.66.16,1.01.16h.19c-.73,0-1.32-.57-1.36-1.29v-12.71h-12.82c-.08,0-.16,0-.24-.01-.03,0-.06,0-.1,0-.06,0-.13-.01-.2-.03-.07-.01-.14-.02-.21-.04-.07-.02-.15-.04-.22-.06-.04-.01-.09-.03-.13-.04-.06-.02-.12-.04-.18-.07-.08-.03-.15-.07-.23-.11-.08-.04-.15-.08-.22-.13-.07-.04-.13-.08-.19-.13-.01-.01-.02-.02-.03-.03-.06-.05-.12-.09-.18-.14-.06-.05-.12-.11-.18-.17-.06-.06-.12-.12-.17-.19-.04-.05-.09-.1-.13-.16,0-.01-.01-.02-.03-.04-.05-.07-.09-.14-.14-.21,0,0,0-.01-.01-.01-.04-.07-.08-.14-.11-.2-.04-.08-.08-.15-.11-.23-.03-.08-.06-.16-.09-.24.32.1.66.16,1.01.16h.04c-.68-.08-1.2-.65-1.2-1.35v-9.4c0-1.79,1.46-3.24,3.25-3.24h12.82v-12.82c0-1.79,1.45-3.25,3.24-3.25h9.39c.75,0,1.36.61,1.36,1.36v-.19c0-.35-.06-.69-.16-1.01.07.02.14.05.21.08.06.03.13.05.19.08.05.02.1.05.14.07.19.1.36.22.52.35.05.05.11.09.16.14.02.02.05.04.07.06.11.11.21.23.3.35.02.02.04.05.05.07.05.06.09.13.13.19.13.2.23.42.3.65.06.16.1.33.13.5.01.07.02.14.03.21,0,.02,0,.05,0,.08,0,.08.01.16.01.24v12.82h12.82c.62.09,1.1.58,1.17,1.2v-.03c0-.35-.06-.69-.16-1.01.01,0,.02,0,.03.01.07.02.14.05.21.08.22.09.42.2.61.33.07.05.14.1.2.16.03.03.07.06.1.09.01.01.03.02.04.04.03.03.06.05.09.08.08.08.15.16.22.24.06.08.11.15.17.23.01.01.02.02.02.03.02.04.05.07.07.11.03.05.06.09.08.14.03.04.05.09.07.14.03.06.06.13.09.2.03.07.06.14.08.22.02.06.04.11.05.17.01.03.02.06.02.08.02.07.03.14.04.21.01.07.02.14.03.21,0,.03,0,.06,0,.08,0,.08.01.16.01.24Z"></path><path class="cls-8" d="M44.82,33.75v-12.82c0-.08,0-.16-.01-.24,0-.03,0-.05,0-.08,0-.07-.01-.14-.03-.21-.03-.17-.07-.34-.13-.5-.08-.23-.18-.44-.3-.65-.04-.07-.08-.13-.13-.19-.01-.02-.03-.05-.05-.07-.09-.13-.19-.24-.3-.35-.02-.02-.05-.04-.07-.06-.05-.05-.1-.09-.16-.14-.16-.13-.34-.25-.52-.35-.04-.02-.09-.05-.14-.07-.06-.03-.12-.06-.19-.08-.07-.03-.14-.06-.21-.08-.32-.1-.66-.16-1.01-.16h-.19c.75,0,1.36.61,1.36,1.36v14.71h2.08Z"></path><path class="cls-8" d="M60.88,36.76s0-.05,0-.08c0-.07-.01-.14-.03-.21-.01-.07-.03-.14-.04-.21,0-.03-.01-.05-.02-.08-.01-.06-.03-.11-.05-.17-.02-.07-.05-.14-.08-.22-.03-.07-.06-.14-.09-.2-.02-.05-.05-.1-.07-.14-.02-.05-.05-.09-.08-.14-.02-.04-.05-.08-.07-.11,0-.01-.01-.02-.02-.03-.05-.08-.11-.15-.17-.23-.07-.08-.14-.16-.22-.24-.03-.03-.06-.06-.09-.08-.01-.01-.03-.02-.04-.04-.04-.03-.07-.06-.1-.09-.06-.05-.14-.11-.2-.16-.19-.13-.39-.24-.61-.33-.07-.03-.14-.06-.21-.08-.01,0-.02,0-.03-.01-.32-.1-.66-.16-1.01-.16.62.09,1.1.58,1.17,1.2v9.55c0,1.79-1.46,3.24-3.25,3.24h-12.82v12.82c0,1.79-1.45,3.25-3.24,3.25h-9.39c-.73,0-1.32-.57-1.36-1.29v.12c0,.35.06.69.16,1.01.16.49.43.93.79,1.29.06.05.12.11.18.16.3.26.66.47,1.05.61.04.01.07.02.11.04.06.02.13.04.2.06.14.04.29.06.44.07.03,0,.05,0,.08,0,.08,0,.16.01.24.01h9.58c1.79,0,3.24-1.46,3.24-3.25v-12.82h12.82c1.79,0,3.25-1.45,3.25-3.24v-9.58c0-.08,0-.16-.01-.24Z"></path><path class="cls-8" d="M28.75,47.74h-14.87c-.68-.08-1.2-.65-1.2-1.35v.18c0,.35.06.69.16,1.01.03.08.06.16.09.24.03.08.07.15.11.23.04.07.08.14.11.2,0,0,.01.01.01.01.05.07.09.14.14.21.01.01.02.03.03.04.04.06.09.11.13.16.05.06.11.13.17.19.06.06.12.11.18.17.06.05.12.1.18.14.01,0,.02.01.03.03.06.05.13.09.19.13.07.05.14.09.22.13.08.04.15.08.23.11.06.02.12.05.18.07.04.02.09.03.13.04.07.02.15.04.22.06.07.02.14.03.21.04.06.01.13.02.2.03.03,0,.06,0,.1,0,.08,0,.16.01.24.01h12.82v-2.08Z"></path><g><path class="cls-4" d="M97.76,63.44h-2.76v12.02h-6.64v-33.3h9.4c7.2,0,9.36,4.07,9.36,10.57s-2.15,10.71-9.36,10.71ZM97.8,48.15h-2.81v9.31h2.81c2.53,0,2.67-2.57,2.67-4.68s-.14-4.63-2.67-4.63Z"></path><path class="cls-4" d="M122.17,75.46l-4.07-12.96h-2.2v12.96h-6.64v-33.3h9.5c7.25,0,9.26,3.79,9.26,10.15,0,3.56-.56,6.74-3.79,8.75l4.87,14.41h-6.92ZM118.71,48.15h-2.81v8.37h2.81c2.53,0,2.67-2.29,2.67-4.21s-.14-4.16-2.67-4.16Z"></path><path class="cls-4" d="M130.97,75.46v-33.3h15.34v5.99h-8.7v7.53h7.48v5.99h-7.48v7.81h8.7v5.99h-15.34Z"></path><path class="cls-4" d="M166.71,65.97h-6.64c-.05.94-.14,1.87-.51,2.57-.37.8-1.08,1.31-2.29,1.31s-1.82-.56-2.2-1.31c-.8-1.54-.89-5.71-.89-9.73s.09-8.19.89-9.73c.37-.75.98-1.31,2.2-1.31s1.87.47,2.24,1.26c.37.7.47,1.64.51,2.57h6.64c-.14-3.18-1.22-5.8-2.95-7.44-1.68-1.59-3.7-2.39-6.45-2.39-3.74,0-5.71,1.5-7.25,3.32-2.67,3.18-2.48,9.26-2.48,13.75s-.19,10.48,2.48,13.66c1.01,1.19,2.2,2.23,3.95,2.82l-2.48,6.25h4.16l1.98-5.76c2.58-.07,4.49-.85,6.1-2.37,1.73-1.64,2.85-4.3,2.99-7.48Z"></path><path class="cls-4" d="M185.94,72.52c-1.54,1.82-3.6,3.32-7.34,3.32s-5.71-1.5-7.25-3.32c-2.67-3.18-2.48-9.21-2.48-13.7s-.19-10.52,2.48-13.71c1.54-1.82,3.51-3.32,7.25-3.32s5.8,1.5,7.34,3.32c2.67,3.18,2.48,9.21,2.48,13.71s.19,10.52-2.48,13.7ZM180.88,49.08c-.37-.75-1.08-1.31-2.29-1.31s-1.82.56-2.2,1.31c-.8,1.54-.89,5.71-.89,9.73s.09,8.19.89,9.73c.37.75.98,1.31,2.2,1.31s1.92-.56,2.29-1.31c.8-1.54.89-5.71.89-9.73s-.09-8.19-.89-9.73Z"></path></g><g><path class="cls-5" d="M199.87,63.44h-2.76v12.02h-6.64v-33.3h9.4c7.2,0,9.36,4.07,9.36,10.57s-2.15,10.71-9.36,10.71ZM199.92,48.15h-2.81v9.31h2.81c2.53,0,2.67-2.57,2.67-4.68s-.14-4.63-2.67-4.63Z"></path><path class="cls-5" d="M228.46,72.52c-1.54,1.82-3.6,3.32-7.34,3.32s-5.71-1.5-7.25-3.32c-2.67-3.18-2.48-9.21-2.48-13.7s-.19-10.52,2.48-13.71c1.54-1.82,3.51-3.32,7.25-3.32s5.8,1.5,7.34,3.32c2.67,3.18,2.48,9.21,2.48,13.71s.19,10.52-2.48,13.7ZM223.41,49.08c-.37-.75-1.08-1.31-2.29-1.31s-1.82.56-2.2,1.31c-.79,1.54-.89,5.71-.89,9.73s.09,8.19.89,9.73c.37.75.98,1.31,2.2,1.31s1.92-.56,2.29-1.31c.8-1.54.89-5.71.89-9.73s-.09-8.19-.89-9.73Z"></path><path class="cls-5" d="M242.56,63.44h-2.76v12.02h-6.64v-33.3h9.4c7.2,0,9.36,4.07,9.36,10.57s-2.15,10.71-9.36,10.71ZM242.61,48.15h-2.81v9.31h2.81c2.53,0,2.67-2.57,2.67-4.68s-.14-4.63-2.67-4.63Z"></path><path class="cls-5" d="M270.32,73.08c-1.78,1.82-4.12,2.76-6.92,2.76s-5.15-.94-6.92-2.76c-1.59-1.64-2.48-3.88-2.48-6.55v-24.37h6.64v24.7c0,2.15,1.26,2.99,2.76,2.99s2.76-.84,2.76-2.99v-24.7h6.64v24.37c0,2.67-.89,4.91-2.48,6.55Z"></path><path class="cls-5" d="M274.95,75.46v-33.3h6.64v27.32h8.7v5.99h-15.34Z"></path><path class="cls-5" d="M309.2,75.46l-1.08-5.19h-7.67l-1.08,5.19h-6.92l8.56-33.3h6.55l8.56,33.3h-6.92ZM304.28,51.94l-2.57,12.35h5.15l-2.57-12.35Z"></path><path class="cls-5" d="M331.18,75.46l-4.07-12.96h-2.2v12.96h-6.64v-33.3h9.5c7.25,0,9.26,3.79,9.26,10.15,0,3.56-.56,6.74-3.79,8.75l4.87,14.41h-6.92ZM327.72,48.15h-2.81v8.37h2.81c2.53,0,2.67-2.29,2.67-4.21s-.14-4.16-2.67-4.16Z"></path></g><g><path class="cls-1" d="M93.13,12.44v6h9.63v4.25h-9.63v9.9h-4.76V8.19h16.07v4.25h-11.31Z"></path><path class="cls-1" d="M132.75,32.59l-1.44-4.32h-8.67l-1.47,4.32h-4.97l8.88-24.4h3.74l8.91,24.4h-4.97ZM127.06,15.39l-3.08,8.88h6.07l-2.98-8.88Z"></path><path class="cls-1" d="M166.02,32.59l-4.76-9.73h-3.43v9.73h-4.76V8.19h9.56c4.97,0,7.92,3.39,7.92,7.47,0,3.43-2.09,5.55-4.46,6.41l5.45,10.52h-5.52ZM162.32,12.44h-4.49v6.44h4.49c2.09,0,3.46-1.34,3.46-3.22s-1.37-3.22-3.46-3.22Z"></path><path class="cls-1" d="M205.16,32.59v-14.22l-4.66,9.25h-3.22l-4.7-9.25v14.22h-4.76V8.19h4.7l6.37,13.19,6.34-13.19h4.7v24.4h-4.76Z"></path><path class="cls-1" d="M241.83,32.59l-1.44-4.32h-8.67l-1.47,4.32h-4.97l8.88-24.4h3.74l8.91,24.4h-4.97ZM236.14,15.39l-3.08,8.88h6.07l-2.98-8.88ZM237.06,5.83h-2.98l2.19-5.83h4.69l-3.91,5.83Z"></path><path class="cls-1" d="M269.96,32.8c-2.6,0-4.8-.89-6.58-2.67-1.06-1.06-1.71-2.3-1.99-3.67-.27-1.37-.41-3.39-.41-6.07s.14-4.7.41-6.07c.27-1.41.93-2.6,1.99-3.67,1.78-1.78,3.98-2.67,6.58-2.67,4.69,0,8.16,2.74,8.98,7.71h-4.83c-.51-2.09-1.82-3.46-4.11-3.46-1.3,0-2.33.41-3.05,1.27-.99,1.06-1.2,2.16-1.2,6.89s.21,5.83,1.2,6.89c.72.86,1.75,1.27,3.05,1.27,2.3,0,3.6-1.37,4.11-3.46h4.83c-.82,4.97-4.32,7.71-8.98,7.71Z"></path><path class="cls-1" d="M295.39,32.59V8.19h4.76v24.4h-4.76Z"></path><path class="cls-1" d="M332.06,32.59l-1.44-4.32h-8.67l-1.47,4.32h-4.97l8.88-24.4h3.74l8.91,24.4h-4.97ZM326.37,15.39l-3.08,8.88h6.07l-2.98-8.88Z"></path></g></svg>